<svg xmlns="http://www.w3.org/2000/svg" viewBox="0 0 28 28" fill="none">
    <rect x="0.5" y="0.5" width="27" height="27" rx="7.5" fill="#0F0822" style="stroke: rgb(37, 26, 51);"/>
    <path d="M 8.113 8.107 C 8.113 8.871 8.719 9.491 9.467 9.491 L 18.047 9.491 M 8.113 8.107 C 8.113 7.342 8.719 6.722 9.467 6.722 L 17.445 6.722 C 17.776 6.722 18.047 6.997 18.047 7.337 L 18.047 9.491 M 8.113 8.107 L 8.113 19.182 C 8.113 19.948 8.719 20.567 9.467 20.567 L 18.648 20.567 C 18.981 20.567 19.251 20.291 19.251 19.952 L 19.251 10.106 C 19.251 9.766 18.981 9.491 18.648 9.491 L 18.047 9.491" stroke="#666571" style=""/>
    <line x1="16.002" y1="13.594" x2="11.244" y2="13.594" stroke="#666571" style=""/>
</svg>
