<svg width="48" height="48" viewBox="0 0 48 48" fill="none" xmlns="http://www.w3.org/2000/svg">
    <rect x="0.5" y="0.5" width="47" height="47" rx="11.5" fill="#110A20"/>
    <path d="M13 32V26H19" stroke="#666571" stroke-width="2" stroke-linecap="round" stroke-linejoin="round"/>
    <path d="M35 16V22H29" stroke="#666571" stroke-width="2" stroke-linecap="round" stroke-linejoin="round"/>
    <path d="M15.51 20.9996C16.0172 19.5664 16.8791 18.285 18.0155 17.275C19.1518 16.265 20.5255 15.5594 22.0083 15.2238C23.4911 14.8883 25.0348 14.9339 26.4952 15.3564C27.9556 15.7788 29.2853 16.5643 30.36 17.6396L35 21.9996M13 25.9996L17.64 30.3596C18.7147 31.4349 20.0444 32.2204 21.5048 32.6428C22.9652 33.0652 24.5089 33.1108 25.9917 32.7753C27.4745 32.4398 28.8482 31.7342 29.9845 30.7242C31.1209 29.7142 31.9828 28.4328 32.49 26.9996" stroke="#666571" stroke-width="2" stroke-linecap="round" stroke-linejoin="round"/>
    <rect x="0.5" y="0.5" width="47" height="47" rx="11.5" stroke="#231B31"/>
</svg>
