<svg width="85" height="29" viewBox="0 0 85 29" fill="none" xmlns="http://www.w3.org/2000/svg">
    <path d="M39.3051 5.43194C38.651 5.43194 38.0786 5.19027 37.588 4.70693C37.1179 4.20258 36.8828 3.61416 36.8828 2.94169C36.8828 2.26922 37.1179 1.68081 37.588 1.17645C38.0786 0.672099 38.651 0.419922 39.3051 0.419922C39.9797 0.419922 40.5521 0.672099 41.0222 1.17645C41.5128 1.68081 41.7581 2.26922 41.7581 2.94169C41.7581 3.61416 41.5128 4.20258 41.0222 4.70693C40.5521 5.19027 39.9797 5.43194 39.3051 5.43194ZM37.3427 23.1159V6.9345H41.2982V23.1159H37.3427Z" fill="white"/>
    <path d="M29.8166 6.93457H33.9153V23.0949H29.8166V20.9122C28.8211 22.3814 27.243 23.1159 25.0825 23.1159C23.3455 23.1159 21.9052 22.5388 20.7614 21.3845C19.6387 20.2302 19.0774 18.6351 19.0774 16.5993V6.93457H23.1761V16.0956C23.1761 17.145 23.462 17.953 24.034 18.5197C24.6059 19.0653 25.3684 19.3382 26.3216 19.3382C27.3807 19.3382 28.228 19.0129 28.8634 18.3623C29.4989 17.7117 29.8166 16.7357 29.8166 15.4345V6.93457Z" fill="white"/>
    <path d="M8.7052 23.1162C6.51043 23.1162 4.66388 22.6294 3.16553 21.6556C1.66718 20.6607 0.612002 19.3165 0 17.623L3.73532 15.432C4.60057 17.697 6.2994 18.8296 8.83182 18.8296C10.0558 18.8296 10.9527 18.6073 11.5225 18.1628C12.0923 17.7182 12.3772 17.1572 12.3772 16.4798C12.3772 15.6966 12.029 15.0933 11.3326 14.6699C10.6362 14.2254 9.39106 13.7491 7.59726 13.241C6.6054 12.9447 5.76126 12.6483 5.06484 12.3519C4.38953 12.0556 3.70367 11.664 3.00725 11.1771C2.33194 10.669 1.8149 10.034 1.45614 9.2719C1.09738 8.50982 0.918003 7.62074 0.918003 6.60464C0.918003 4.59361 1.62497 2.99537 3.03891 1.80993C4.47394 0.603309 6.19388 0 8.19871 0C9.99251 0 11.5647 0.444543 12.9153 1.33363C14.2871 2.20155 15.3528 3.41875 16.1125 4.98523L12.4405 7.11269C11.5542 5.2075 10.1402 4.25491 8.19871 4.25491C7.29126 4.25491 6.57374 4.4666 6.04616 4.88997C5.53967 5.29218 5.28643 5.8214 5.28643 6.47763C5.28643 7.17619 5.57133 7.74775 6.14112 8.19229C6.73202 8.61567 7.85051 9.08138 9.49658 9.58943C10.1719 9.80112 10.6784 9.97046 11.016 10.0975C11.3748 10.2033 11.8496 10.3833 12.4405 10.6373C13.0525 10.8701 13.5168 11.0924 13.8334 11.3041C14.171 11.5158 14.5509 11.8016 14.9729 12.1614C15.395 12.5213 15.7116 12.8917 15.9226 13.2728C16.1547 13.6538 16.3447 14.1195 16.4924 14.6699C16.6612 15.1991 16.7456 15.7813 16.7456 16.4163C16.7456 18.4697 15.9965 20.0997 14.4981 21.3063C13.0209 22.5129 11.0899 23.1162 8.7052 23.1162Z" fill="#595BD4"/>
    <path d="M76.6153 18.9553H84.9999V23.1162H72.2817V0H76.6153V18.9553Z" fill="#595BD4"/>
    <path d="M68.0425 11.5581C68.0425 17.9415 62.8229 23.1162 56.3842 23.1162C49.9455 23.1162 44.7258 17.9415 44.7258 11.5581C44.7258 5.17475 49.9455 0 56.3842 0C62.8229 0 68.0425 5.17475 68.0425 11.5581ZM48.7533 11.5581C48.7533 15.8137 52.0917 19.2635 56.3842 19.2635C60.6767 19.2635 64.1564 15.8137 64.1564 11.5581C64.1564 7.30254 60.6767 3.8527 56.3842 3.8527C52.0917 3.8527 48.7533 7.30254 48.7533 11.5581Z" fill="#595BD4"/>
    <path d="M69.8361 23.1237C68.1296 24.9736 66.0536 26.4514 63.7401 27.463C61.4265 28.4746 58.9259 28.9979 56.3973 28.9998L56.3945 25.2234C58.3948 25.2219 60.3728 24.8079 62.203 24.0077C64.0331 23.2075 65.6753 22.0386 67.0252 20.5752L69.8361 23.1237Z" fill="#595BD4"/>
</svg>
