<svg width="2464" height="2614" viewBox="0 0 2464 2614" fill="none" xmlns="http://www.w3.org/2000/svg">
    <g clip-path="url(#clip0_218_11323)">
        <g filter="url(#filter0_f_218_11323)">
            <path d="M1241.57 1710.13C1288.91 1542.23 1181.92 1365.13 1002.59 1314.56C823.259 1264 639.505 1359.11 592.163 1527.01C544.82 1694.91 651.817 1872.01 831.146 1922.58C1010.48 1973.14 1194.23 1878.03 1241.57 1710.13Z" fill="url(#paint0_linear_218_11323)" fill-opacity="0.16"/>
        </g>
        <g filter="url(#filter1_f_218_11323)">
            <path d="M2198 1022.4C2288.28 702.242 2058.91 357.391 1685.69 252.154C1312.47 146.917 936.732 321.145 846.457 641.303C756.182 961.462 985.553 1306.31 1358.77 1411.55C1731.99 1516.79 2107.73 1342.56 2198 1022.4Z" fill="url(#paint1_linear_218_11323)" fill-opacity="0.22"/>
        </g>
        <path d="M1695.27 1573.71C1477.23 1684.13 1603.24 1907.58 1693.51 2005.51C1965.1 2233.75 2048.66 1955.11 1931.55 1772.28C1814.44 1589.46 2220.34 1672.06 2200.37 1402.39C2177.21 1089.7 1967.83 1435.69 1695.27 1573.71Z" stroke="#202037"/>
        <path opacity="0.95875" d="M1703.5 1581.89C1481.73 1684.63 1599.88 1912.35 1686.67 2013.37C1950.13 2250.95 2043.37 1975.39 1932.71 1788.59C1822.05 1601.79 2224.81 1698.51 2214.27 1428.31C2202.04 1115 1980.71 1453.47 1703.5 1581.89Z" stroke="#202037"/>
        <path opacity="0.9175" d="M1711.44 1590.36C1486.22 1685.3 1596.34 1917 1679.56 2020.98C1934.56 2267.61 2037.36 1995.48 1933.29 1804.93C1829.22 1614.38 2228.36 1725.09 2227.25 1454.69C2225.97 1141.15 1992.96 1471.68 1711.44 1590.36Z" stroke="#202037"/>
        <path opacity="0.87625" d="M1719.07 1599.09C1490.68 1686.12 1592.65 1921.52 1672.19 2028.34C1918.43 2283.72 2030.66 2015.34 1933.3 1821.27C1835.94 1627.21 2230.98 1751.79 2239.31 1481.51C2248.97 1168.12 2004.56 1490.32 1719.07 1599.09Z" stroke="#202037"/>
        <path opacity="0.835" d="M1726.4 1608.09C1495.11 1687.09 1588.8 1925.91 1664.56 2035.44C1901.74 2299.26 2023.27 2034.96 1932.74 1837.61C1842.22 1640.27 2232.67 1778.56 2250.42 1508.74C2271.01 1195.87 2015.51 1509.34 1726.4 1608.09Z" stroke="#202037"/>
        <path opacity="0.79375" d="M1733.41 1617.34C1499.5 1688.22 1584.8 1930.16 1656.69 2042.27C1884.52 2314.21 2015.2 2054.31 1931.62 1853.92C1848.03 1653.54 2233.42 1805.37 2260.58 1536.33C2292.07 1224.37 2025.79 1528.74 1733.41 1617.34Z" stroke="#202037"/>
        <path opacity="0.7525" d="M1740.09 1626.83C1503.85 1689.5 1580.66 1934.27 1648.59 2048.82C1866.79 2328.54 2006.46 2073.36 1929.92 1870.18C1853.38 1667 2233.23 1832.19 2269.77 1564.27C2312.13 1253.6 2035.39 1548.49 1740.09 1626.83Z" stroke="#202037"/>
        <path opacity="0.71125" d="M1746.44 1636.54C1508.15 1690.93 1576.37 1938.23 1640.26 2055.09C1848.57 2342.25 1997.06 2092.1 1927.66 1886.37C1858.26 1680.65 2232.11 1858.99 2277.97 1592.5C2331.15 1283.5 2044.29 1568.56 1746.44 1636.54Z" stroke="#202037"/>
        <path opacity="0.67" d="M1752.44 1646.47C1512.4 1692.51 1571.95 1942.04 1631.73 2061.06C1829.88 2355.31 1987.01 2110.5 1924.83 1902.48C1862.65 1694.45 2230.06 1885.74 2285.19 1621.01C2349.12 1314.05 2052.48 1588.92 1752.44 1646.47Z" stroke="#202037"/>
        <path opacity="0.62875" d="M1758.09 1656.6C1516.6 1694.24 1567.4 1945.7 1622.98 2066.72C1810.75 2367.72 1976.33 2128.54 1921.45 1918.47C1866.56 1708.4 2227.07 1912.39 2291.41 1649.75C2366.01 1345.21 2059.96 1609.56 1758.09 1656.6Z" stroke="#202037"/>
        <path opacity="0.5875" d="M1763.39 1666.93C1520.73 1696.11 1562.72 1949.19 1614.05 2072.08C1791.19 2379.45 1965.02 2146.19 1917.5 1934.33C1869.98 1722.48 2223.15 1938.93 2296.62 1678.69C2381.8 1376.94 2066.71 1630.45 1763.39 1666.93Z" stroke="#202037"/>
        <path opacity="0.54625" d="M1768.32 1677.43C1524.79 1698.13 1557.92 1952.52 1604.93 2077.13C1771.24 2390.49 1953.11 2163.44 1913.01 1950.05C1872.91 1736.67 2218.31 1965.31 2300.81 1707.8C2396.48 1409.21 2072.73 1651.56 1768.32 1677.43Z" stroke="#202037"/>
        <path opacity="0.505" d="M1772.88 1688.1C1528.78 1700.28 1553.01 1955.68 1595.64 2081.85C1750.92 2400.82 1940.59 2180.26 1907.97 1965.61C1875.34 1750.95 2212.55 1991.51 2303.99 1737.03C2410.02 1441.96 2078.01 1672.87 1772.88 1688.1Z" stroke="#202037"/>
        <path opacity="0.46375" d="M1777.07 1698.92C1532.69 1702.58 1548 1958.66 1586.2 2086.25C1730.25 2410.44 1927.51 2196.63 1902.39 1980.97C1877.28 1765.31 2205.88 2017.49 2306.15 1766.36C2422.41 1475.17 2082.55 1694.35 1777.07 1698.92Z" stroke="#202037"/>
        <path opacity="0.4225" d="M1780.88 1709.88C1536.52 1705.01 1542.88 1961.47 1576.61 2090.31C1709.25 2419.34 1913.85 2212.54 1896.28 1996.13C1878.71 1779.73 2198.31 2043.22 2307.28 1795.74C2433.63 1508.79 2086.33 1715.97 1780.88 1709.88Z" stroke="#202037"/>
        <path opacity="0.38125" d="M1784.3 1720.97C1540.26 1707.57 1537.67 1964.1 1566.88 2094.04C1687.96 2427.49 1899.65 2227.96 1889.64 2011.07C1879.63 1794.19 2189.85 2068.67 2307.39 1825.15C2443.68 1542.78 2089.35 1737.72 1784.3 1720.97Z" stroke="#202037"/>
        <path opacity="0.34" d="M1787.33 1732.17C1543.91 1710.26 1532.37 1966.54 1557.02 2097.42C1666.39 2434.9 1884.92 2242.88 1882.49 2025.77C1880.05 1808.67 2180.5 2093.81 2306.47 1854.54C2452.53 1577.1 2091.62 1759.55 1787.33 1732.17Z" stroke="#202037"/>
        <path opacity="0.29875" d="M1789.98 1743.47C1547.46 1713.08 1526.98 1968.8 1547.06 2100.46C1644.58 2441.55 1869.68 2257.27 1874.82 2040.21C1879.97 1823.16 2170.28 2118.61 2304.52 1883.88C2460.18 1611.71 2093.12 1781.45 1789.98 1743.47Z" stroke="#202037"/>
        <path opacity="0.2575" d="M1792.22 1754.85C1550.92 1716.02 1521.52 1970.87 1536.99 2103.15C1622.55 2447.43 1853.94 2271.12 1866.66 2054.38C1879.38 1837.63 2159.2 2143.04 2301.55 1913.14C2466.61 1646.56 2093.85 1803.39 1792.22 1754.85Z" stroke="#202037"/>
        <path opacity="0.21625" d="M1794.07 1766.31C1554.27 1719.07 1516 1972.75 1526.84 2105.48C1600.33 2452.55 1837.73 2284.42 1858.01 2068.25C1878.28 1852.08 2147.28 2167.07 2297.56 1942.27C2471.83 1681.62 2093.82 1825.35 1794.07 1766.31Z" stroke="#202037"/>
        <path opacity="0.175" d="M1795.51 1777.82C1557.5 1722.25 1510.41 1974.43 1516.61 2107.46C1577.95 2456.88 1821.07 2297.14 1848.88 2081.81C1876.68 1866.48 2134.52 2190.66 2292.56 1971.25C2475.81 1716.84 2093.02 1847.28 1795.51 1777.82Z" stroke="#202037"/>
        <path opacity="0.13375" d="M1796.56 1789.38C1560.63 1725.53 1504.76 1975.91 1506.32 2109.09C1555.42 2460.43 1803.97 2309.27 1839.28 2095.04C1874.58 1880.82 2120.95 2213.8 2286.55 2000.04C2478.57 1752.17 2091.46 1869.18 1796.56 1789.38Z" stroke="#202037"/>
        <path opacity="0.0925" d="M1797.19 1800.96C1563.64 1728.92 1499.07 1977.2 1495.97 2110.35C1532.79 2463.19 1786.46 2320.8 1829.22 2107.93C1871.98 1895.07 2106.58 2236.45 2279.54 2028.6C2480.09 1787.58 2089.13 1891.01 1797.19 1800.96Z" stroke="#202037"/>
        <path opacity="0.05125" d="M1797.43 1812.56C1566.53 1732.42 1493.33 1978.29 1485.59 2111.25C1510.07 2465.16 1768.56 2331.71 1818.72 2120.47C1868.88 1909.22 2091.42 2258.58 2271.53 2056.89C2480.38 1823.02 2086.05 1912.75 1797.43 1812.56Z" stroke="#202037"/>
        <path opacity="0.01" d="M1797.26 1824.16C1569.3 1736.01 1487.56 1979.18 1475.19 2111.79C1487.3 2466.34 1750.29 2341.99 1807.79 2132.62C1865.3 1923.26 2075.51 2280.17 2262.55 2084.89C2479.43 1858.45 2082.2 1934.36 1797.26 1824.16Z" stroke="#202037"/>
        <path d="M729.102 206.312C897.918 536.202 1382.47 1079.19 1970.15 612.029" stroke="#3C3C4E" stroke-opacity="0.7"/>
        <path d="M1304.36 2648.72C1135.54 2318.83 650.989 1775.84 63.3105 2243" stroke="#3C3C4E" stroke-opacity="0.7"/>
        <path d="M736.202 236.465C918.496 560.972 1424.54 1087.77 1990.37 598.897" stroke="#3C3C4E" stroke-opacity="0.7"/>
        <path d="M743.304 266.619C938.801 585.257 1465.57 1095.07 2008.7 585.222" stroke="#3C3C4E" stroke-opacity="0.7"/>
        <path d="M750.406 296.771C958.812 609.06 1505.53 1101.12 2025.13 571.066" stroke="#3C3C4E" stroke-opacity="0.7"/>
        <path d="M757.507 326.926C978.509 632.395 1544.34 1105.97 2039.64 556.499" stroke="#3C3C4E" stroke-opacity="0.7"/>
        <path d="M764.609 357.078C997.875 655.269 1581.97 1109.64 2052.22 541.584" stroke="#3C3C4E" stroke-opacity="0.7"/>
        <path d="M771.709 387.23C1016.89 677.695 1618.37 1112.18 2062.87 526.393" stroke="#3C3C4E" stroke-opacity="0.7"/>
        <path d="M778.812 417.385C1035.53 699.685 1653.5 1113.63 2071.57 510.994" stroke="#3C3C4E" stroke-opacity="0.7"/>
        <path d="M785.914 447.537C1053.79 721.25 1687.31 1114.03 2078.33 495.452" stroke="#3C3C4E" stroke-opacity="0.7"/>
        <path d="M793.014 477.689C1071.65 742.402 1719.76 1113.43 2083.15 479.838" stroke="#3C3C4E" stroke-opacity="0.7"/>
        <path d="M800.116 507.844C1089.09 763.158 1750.83 1111.87 2086.03 464.223" stroke="#3C3C4E" stroke-opacity="0.7"/>
        <path d="M807.219 537.996C1106.09 783.528 1780.46 1109.41 2086.97 448.671" stroke="#3C3C4E" stroke-opacity="0.7"/>
        <path d="M814.318 568.148C1122.64 803.529 1808.62 1106.08 2085.98 433.254" stroke="#3C3C4E" stroke-opacity="0.7"/>
        <path d="M821.421 598.303C1138.73 823.178 1835.3 1101.95 2083.09 418.042" stroke="#3C3C4E" stroke-opacity="0.7"/>
        <path d="M828.523 628.455C1154.34 842.486 1860.45 1097.06 2078.3 403.098" stroke="#3C3C4E" stroke-opacity="0.7"/>
        <path d="M835.626 658.607C1169.47 861.473 1884.04 1091.46 2071.62 388.494" stroke="#3C3C4E" stroke-opacity="0.7"/>
        <path d="M842.726 688.762C1184.08 880.157 1906.06 1085.22 2063.09 374.298" stroke="#3C3C4E" stroke-opacity="0.7"/>
        <path d="M849.828 718.914C1198.19 898.55 1926.48 1078.37 2052.72 360.573" stroke="#3C3C4E" stroke-opacity="0.7"/>
        <path d="M856.931 749.066C1211.78 916.674 1945.28 1070.99 2040.55 347.387" stroke="#3C3C4E" stroke-opacity="0.7"/>
        <path d="M864.031 779.221C1224.82 934.547 1962.44 1063.12 2026.59 334.808" stroke="#3C3C4E" stroke-opacity="0.7"/>
        <path d="M871.133 809.373C1237.33 952.185 1977.95 1054.83 2010.88 322.894" stroke="#3C3C4E" stroke-opacity="0.7"/>
        <path d="M878.235 839.527C1249.29 969.61 1991.8 1046.16 1993.46 311.715" stroke="#3C3C4E" stroke-opacity="0.7"/>
        <path d="M885.336 869.68C1260.68 986.837 2003.97 1037.19 1974.36 301.327" stroke="#3C3C4E" stroke-opacity="0.7"/>
        <path d="M892.438 899.832C1271.51 1003.89 2014.46 1027.96 1953.63 291.794" stroke="#3C3C4E" stroke-opacity="0.7"/>
        <path d="M899.538 929.986C1281.78 1020.78 2023.26 1018.54 1931.29 283.178" stroke="#3C3C4E" stroke-opacity="0.7"/>
        <path d="M906.641 960.139C1291.46 1037.54 2030.37 1008.99 1907.41 275.532" stroke="#3C3C4E" stroke-opacity="0.7"/>
        <path d="M913.743 990.291C1300.57 1054.18 2035.79 999.36 1882.02 268.916" stroke="#3C3C4E" stroke-opacity="0.7"/>
        <path d="M920.843 1020.45C1309.1 1070.73 2039.52 989.721 1855.18 263.387" stroke="#3C3C4E" stroke-opacity="0.7"/>
        <path d="M927.945 1050.6C1317.04 1087.2 2041.57 980.127 1826.93 258.995" stroke="#3C3C4E" stroke-opacity="0.7"/>
        <path d="M935.048 1080.75C1324.4 1103.62 2041.95 970.64 1797.33 255.796" stroke="#3C3C4E" stroke-opacity="0.7"/>
        <path d="M942.146 1110.9C1331.17 1120 2040.66 961.317 1766.42 253.835" stroke="#3C3C4E" stroke-opacity="0.7"/>
        <path d="M949.25 1141.06C1337.36 1136.37 2037.72 952.219 1734.28 253.164" stroke="#3C3C4E" stroke-opacity="0.7"/>
        <path d="M956.354 1171.21C1342.96 1152.74 2033.14 943.407 1700.97 253.83" stroke="#3C3C4E" stroke-opacity="0.7"/>
        <path d="M963.453 1201.36C1347.98 1169.14 2026.94 934.936 1666.52 255.873" stroke="#3C3C4E" stroke-opacity="0.7"/>
        <path d="M970.555 1231.52C1352.43 1185.59 2019.14 926.866 1631.03 259.339" stroke="#3C3C4E" stroke-opacity="0.7"/>
        <path d="M977.657 1261.67C1356.3 1202.11 2009.77 919.255 1594.54 264.269" stroke="#3C3C4E" stroke-opacity="0.7"/>
        <path d="M984.758 1291.82C1359.6 1218.72 1998.84 912.158 1557.12 270.698" stroke="#3C3C4E" stroke-opacity="0.7"/>
        <path d="M991.86 1321.97C1362.33 1235.44 1986.39 905.632 1518.84 278.662" stroke="#3C3C4E" stroke-opacity="0.7"/>
        <path d="M998.96 1352.13C1364.51 1252.29 1972.44 899.732 1479.76 288.195" stroke="#3C3C4E" stroke-opacity="0.7"/>
        <path d="M1006.06 1382.28C1366.14 1269.29 1957.02 894.514 1439.97 299.331" stroke="#3C3C4E" stroke-opacity="0.7"/>
        <path d="M1013.17 1412.43C1367.23 1286.46 1940.18 890.028 1399.52 312.094" stroke="#3C3C4E" stroke-opacity="0.7"/>
        <path d="M1020.26 1442.59C1367.78 1303.82 1921.94 886.33 1358.49 326.513" stroke="#3C3C4E" stroke-opacity="0.7"/>
        <path d="M1027.37 1472.74C1367.81 1321.39 1902.35 883.467 1316.95 342.609" stroke="#3C3C4E" stroke-opacity="0.7"/>
        <path d="M1034.47 1502.89C1367.33 1339.18 1881.44 881.489 1274.98 360.405" stroke="#3C3C4E" stroke-opacity="0.7"/>
        <path d="M1041.57 1533.05C1366.35 1357.22 1859.25 880.449 1232.64 379.922" stroke="#3C3C4E" stroke-opacity="0.7"/>
        <path d="M1048.67 1563.2C1364.88 1375.53 1835.84 880.388 1190.02 401.171" stroke="#3C3C4E" stroke-opacity="0.7"/>
        <path d="M1055.77 1593.35C1362.93 1394.12 1811.24 881.354 1147.18 424.167" stroke="#3C3C4E" stroke-opacity="0.7"/>
        <path d="M1062.88 1623.51C1360.53 1413.01 1785.51 883.393 1104.21 448.925" stroke="#3C3C4E" stroke-opacity="0.7"/>
        <path d="M1069.98 1653.66C1357.67 1432.21 1758.69 886.543 1061.18 475.447" stroke="#3C3C4E" stroke-opacity="0.7"/>
        <path d="M1077.08 1683.81C1354.38 1451.75 1730.83 890.849 1018.15 503.743" stroke="#3C3C4E" stroke-opacity="0.7"/>
        <path d="M1084.18 1713.96C1350.68 1471.64 1701.99 896.346 975.22 533.812" stroke="#3C3C4E" stroke-opacity="0.7"/>
        <path d="M1091.28 1744.12C1346.58 1491.89 1672.22 903.072 932.451 565.656" stroke="#3C3C4E" stroke-opacity="0.7"/>
        <path d="M1098.38 1774.27C1342.09 1512.52 1641.58 911.062 889.921 599.271" stroke="#3C3C4E" stroke-opacity="0.7"/>
        <path d="M1105.48 1804.42C1337.23 1533.54 1610.12 920.355 847.703 634.658" stroke="#3C3C4E" stroke-opacity="0.7"/>
        <path d="M1112.59 1834.58C1332.03 1554.97 1577.9 930.975 805.875 671.802" stroke="#3C3C4E" stroke-opacity="0.7"/>
        <path d="M1119.69 1864.73C1326.49 1576.83 1544.98 942.955 764.505 710.696" stroke="#3C3C4E" stroke-opacity="0.7"/>
        <path d="M1126.79 1894.88C1320.65 1599.11 1511.42 956.32 723.672 751.324" stroke="#3C3C4E" stroke-opacity="0.7"/>
        <path d="M1133.89 1925.04C1314.51 1621.84 1477.28 971.097 683.444 793.672" stroke="#3C3C4E" stroke-opacity="0.7"/>
        <path d="M1140.99 1955.19C1308.1 1645.03 1442.63 987.309 643.894 837.722" stroke="#3C3C4E" stroke-opacity="0.7"/>
        <path d="M1148.09 1985.34C1301.44 1668.68 1407.52 1004.98 605.093 883.454" stroke="#3C3C4E" stroke-opacity="0.7"/>
        <path d="M1155.2 2015.49C1294.55 1692.81 1372.03 1024.12 567.108 930.842" stroke="#3C3C4E" stroke-opacity="0.7"/>
        <path d="M1162.3 2045.65C1287.45 1717.42 1336.2 1044.75 530.006 979.863" stroke="#3C3C4E" stroke-opacity="0.7"/>
        <path d="M1169.4 2075.8C1280.16 1742.53 1300.11 1066.89 493.856 1030.49" stroke="#3C3C4E" stroke-opacity="0.7"/>
        <path d="M1176.5 2105.95C1272.7 1768.14 1263.83 1090.55 458.723 1082.68" stroke="#3C3C4E" stroke-opacity="0.7"/>
        <path d="M1183.6 2136.11C1265.1 1794.26 1227.42 1115.73 424.668 1136.41" stroke="#3C3C4E" stroke-opacity="0.7"/>
        <path d="M1190.7 2166.26C1257.38 1820.89 1190.94 1142.45 391.755 1191.66" stroke="#3C3C4E" stroke-opacity="0.7"/>
        <path d="M1197.8 2196.41C1249.56 1848.04 1154.46 1170.71 360.044 1248.36" stroke="#3C3C4E" stroke-opacity="0.7"/>
        <path d="M1204.93 2226.57C1241.69 1875.73 1118.07 1200.52 329.622 1306.5" stroke="#3C3C4E" stroke-opacity="0.7"/>
        <path d="M1212.04 2256.73C1233.73 1903.93 1081.79 1231.86 300.488 1366.01" stroke="#3C3C4E" stroke-opacity="0.7"/>
        <path d="M1219.14 2286.88C1225.74 1932.66 1045.7 1264.75 272.723 1426.87" stroke="#3C3C4E" stroke-opacity="0.7"/>
        <path d="M1226.24 2317.04C1217.74 1961.93 1009.88 1299.18 246.384 1489.01" stroke="#3C3C4E" stroke-opacity="0.7"/>
        <path d="M1233.34 2347.19C1209.76 1991.73 974.375 1335.13 221.519 1552.4" stroke="#3C3C4E" stroke-opacity="0.7"/>
        <path d="M1240.44 2377.34C1201.81 2022.06 939.261 1372.61 198.173 1616.99" stroke="#3C3C4E" stroke-opacity="0.7"/>
        <path d="M1247.54 2407.49C1193.91 2052.93 904.602 1411.59 176.398 1682.72" stroke="#3C3C4E" stroke-opacity="0.7"/>
        <path d="M1254.65 2437.64C1186.1 2084.33 870.46 1452.08 156.233 1749.54" stroke="#3C3C4E" stroke-opacity="0.7"/>
        <path d="M1261.75 2467.8C1178.39 2116.27 836.894 1494.05 137.719 1817.4" stroke="#3C3C4E" stroke-opacity="0.7"/>
        <path d="M1268.85 2497.95C1170.81 2148.73 803.967 1537.48 120.896 1886.24" stroke="#3C3C4E" stroke-opacity="0.7"/>
        <path d="M1275.95 2528.11C1163.38 2181.72 771.741 1582.36 105.801 1955.99" stroke="#3C3C4E" stroke-opacity="0.7"/>
        <path d="M1283.05 2558.26C1156.11 2215.23 740.271 1628.66 92.4639 2026.61" stroke="#3C3C4E" stroke-opacity="0.7"/>
        <path d="M1290.15 2588.41C1149.03 2249.25 709.619 1676.36 80.9189 2098.02" stroke="#3C3C4E" stroke-opacity="0.7"/>
        <path d="M1297.26 2618.57C1142.17 2283.79 679.84 1725.43 71.1934 2170.18" stroke="#3C3C4E" stroke-opacity="0.7"/>
    </g>
    <defs>
        <filter id="filter0_f_218_11323" x="80.9561" y="800.991" width="1671.82" height="1635.16" filterUnits="userSpaceOnUse" color-interpolation-filters="sRGB">
            <feFlood flood-opacity="0" result="BackgroundImageFix"/>
            <feBlend mode="normal" in="SourceGraphic" in2="BackgroundImageFix" result="shape"/>
            <feGaussianBlur stdDeviation="250" result="effect1_foregroundBlur_218_11323"/>
        </filter>
        <filter id="filter1_f_218_11323" x="326.809" y="-278.524" width="2390.84" height="2220.75" filterUnits="userSpaceOnUse" color-interpolation-filters="sRGB">
            <feFlood flood-opacity="0" result="BackgroundImageFix"/>
            <feBlend mode="normal" in="SourceGraphic" in2="BackgroundImageFix" result="shape"/>
            <feGaussianBlur stdDeviation="250" result="effect1_foregroundBlur_218_11323"/>
        </filter>
        <linearGradient id="paint0_linear_218_11323" x1="1049" y1="1394.01" x2="732.526" y2="1459.99" gradientUnits="userSpaceOnUse">
            <stop stop-color="#CDBCDE"/>
            <stop offset="1" stop-color="#5F4EC8"/>
        </linearGradient>
        <linearGradient id="paint1_linear_218_11323" x1="1606.8" y1="399.259" x2="1288.81" y2="1240.46" gradientUnits="userSpaceOnUse">
            <stop stop-color="#CDBCDE"/>
            <stop offset="1" stop-color="#AD72D4"/>
        </linearGradient>
        <clipPath id="clip0_218_11323">
            <rect width="2464" height="2614" fill="white"/>
        </clipPath>
    </defs>
</svg>
