<svg width="24" height="24" viewBox="0 0 24 24" fill="none" xmlns="http://www.w3.org/2000/svg">
    <rect width="24" height="24" rx="12" fill="#9A97AE"/>
    <path d="M17.8215 6.4946C16.7507 5.98814 15.6025 5.615 14.4019 5.40129C14.3801 5.39716 14.3582 5.40747 14.347 5.42809C14.1993 5.69883 14.0357 6.05204 13.9212 6.32966C12.6299 6.13039 11.3452 6.13039 10.0804 6.32966C9.96586 6.04587 9.79635 5.69883 9.64801 5.42809C9.63675 5.40816 9.61491 5.39785 9.59304 5.40129C8.39315 5.61432 7.2449 5.98745 6.17346 6.4946C6.16419 6.49872 6.15624 6.5056 6.15096 6.51453C3.97298 9.86867 3.37634 13.1404 3.66904 16.3715C3.67036 16.3873 3.67897 16.4024 3.69089 16.4121C5.12786 17.4999 6.5198 18.1603 7.8859 18.598C7.90777 18.6049 7.93093 18.5966 7.94485 18.5781C8.268 18.1232 8.55606 17.6435 8.80304 17.1391C8.81762 17.1096 8.8037 17.0745 8.77391 17.0628C8.317 16.8842 7.88193 16.6663 7.46342 16.4189C7.43032 16.399 7.42767 16.3502 7.45812 16.3268C7.54619 16.2588 7.63428 16.188 7.71838 16.1166C7.73359 16.1035 7.75479 16.1008 7.77268 16.109C10.5221 17.403 13.4987 17.403 16.2157 16.109C16.2336 16.1001 16.2548 16.1028 16.2706 16.1159C16.3548 16.1873 16.4428 16.2588 16.5316 16.3268C16.562 16.3502 16.56 16.399 16.5269 16.4189C16.1084 16.6711 15.6733 16.8842 15.2158 17.0621C15.186 17.0738 15.1727 17.1096 15.1873 17.1391C15.4396 17.6428 15.7276 18.1225 16.0448 18.5774C16.0581 18.5966 16.0819 18.6049 16.1038 18.598C17.4765 18.1603 18.8684 17.4999 20.3054 16.4121C20.318 16.4024 20.3259 16.388 20.3273 16.3722C20.6776 12.6366 19.7406 9.39177 17.8434 6.51521C17.8387 6.5056 17.8308 6.49872 17.8215 6.4946ZM9.21362 14.4041C8.38586 14.4041 7.7038 13.6207 7.7038 12.6587C7.7038 11.6966 8.37263 10.9132 9.21362 10.9132C10.0612 10.9132 10.7367 11.7035 10.7234 12.6587C10.7234 13.6207 10.0546 14.4041 9.21362 14.4041ZM14.7959 14.4041C13.9682 14.4041 13.2861 13.6207 13.2861 12.6587C13.2861 11.6966 13.9549 10.9132 14.7959 10.9132C15.6436 10.9132 16.319 11.7035 16.3058 12.6587C16.3058 13.6207 15.6436 14.4041 14.7959 14.4041Z" fill="#090218"/>
</svg>
