<svg width="24" height="24" viewBox="0 0 24 24" fill="none" xmlns="http://www.w3.org/2000/svg">
    <g clip-path="url(#clip0_271_3671)">
        <path d="M22 16V8C22 6.11438 22 5.17157 21.4142 4.58579C20.8284 4 19.8854 4 17.9993 4H6.00069C4.11461 4 3.17157 4 2.58579 4.58579C2 5.17157 2 6.11438 2 8V16C2 17.8856 2 18.8284 2.58579 19.4142C3.17157 20 4.11438 20 6 20H18C19.8856 20 20.8284 20 21.4142 19.4142C22 18.8284 22 17.8856 22 16Z" stroke="#666571" stroke-width="2"/>
        <path d="M12 16V8C12 6.11438 12 5.17157 11.4142 4.58579C10.8284 4 9.88553 4 7.99973 4H6.00027C4.11447 4 3.17157 4 2.58579 4.58579C2 5.17157 2 6.11438 2 8V16C2 17.8856 2 18.8284 2.58579 19.4142C3.17157 20 4.11438 20 6 20H8C9.88562 20 10.8284 20 11.4142 19.4142C12 18.8284 12 17.8856 12 16Z" fill="#666571"/>
    </g>
    <defs>
        <clipPath id="clip0_271_3671">
            <rect width="24" height="24" fill="white"/>
        </clipPath>
    </defs>
</svg>
