<svg width="89" height="19" viewBox="0 0 89 19" fill="none" xmlns="http://www.w3.org/2000/svg">
    <path d="M9.34958 15.1593C9.45556 14.8444 9.52224 14.5177 9.54811 14.1865C9.96501 14.2064 10.4812 14.2064 11.037 14.2064C11.044 14.5377 11.0308 14.8692 10.9973 15.199C10.7194 17.3629 7.78125 18.7129 7.78125 18.7129C8.17173 18.2426 8.39516 17.6561 8.41652 17.0453C8.77486 16.4411 9.08678 15.8107 9.34958 15.1593Z" fill="#576FED"/>
    <path d="M3.07711 19.4853C3.07711 19.4853 4.14914 18.0162 4.46678 16.9839C5.28072 16.3685 6.96817 14.2046 6.96817 14.2046C6.96817 14.2046 5.26087 14.0458 4.78441 12.6958C4.46678 11.8421 4.46678 10.2937 4.46678 10.2937C3.86563 10.9025 3.21488 11.4603 2.52125 11.9613C1.60804 12.5568 0 13.073 0 13.073C0 13.073 0.635275 11.3458 1.11173 10.5716C1.58819 9.79735 2.22346 8.904 2.22346 8.904L1.38966 4.13944C1.38966 4.13944 2.93815 4.47693 3.61313 5.25117C4.12269 5.8653 4.58712 6.5155 5.00279 7.1967C5.00279 7.1967 4.88367 4.97324 6.11452 3.18653C6.46534 2.67151 6.95709 2.26844 7.53094 2.02552C8.1048 1.78259 8.73648 1.71011 9.35045 1.81672C9.69252 1.93947 10.0446 2.03246 10.4026 2.09465C10.76 2.15421 11.2364 1.81672 10.7798 0.943213C11.6136 1.16159 12.3879 2.0748 12.3879 2.0748C12.3879 2.0748 12.9437 1.77701 12.3283 0.387348C13.7577 0.506462 14.4922 2.82918 14.4922 2.82918C14.489 1.98017 14.5354 1.13169 14.6312 0.288086C15.0142 0.632075 15.3228 1.05084 15.5379 1.51858C15.753 1.98633 15.87 2.49316 15.8819 3.00786C15.8819 3.00786 17.3311 3.02771 17.9664 4.27841C18.6016 5.5291 17.5495 9.99588 17.5495 9.99588L18.1847 10.512L19.2369 8.76503L20.3089 10.2143L20.8847 8.0305C20.8847 8.0305 21.6589 8.72533 22.2743 9.42016C22.6757 9.90523 22.9609 10.4756 23.1081 11.0878C23.1081 11.0878 22.4331 12.7156 18.6413 13.5891C14.8495 14.4627 8.31813 14.145 8.31813 14.145C8.31813 14.145 8.73503 15.9714 6.92846 17.778C6.44 18.3141 5.84536 18.7427 5.18233 19.0367C4.5193 19.3306 3.80237 19.4834 3.07711 19.4853Z" fill="#7699FF"/>
    <path d="M11.6942 11.6043C13.5253 11.6043 15.0096 10.12 15.0096 8.28897C15.0096 6.45796 13.5253 4.97363 11.6942 4.97363C9.86323 4.97363 8.37891 6.45796 8.37891 8.28897C8.37891 10.12 9.86323 11.6043 11.6942 11.6043Z" fill="#1D1D1B"/>
    <path opacity="0.1" d="M14.2756 8.20861C14.2223 8.60807 14.0873 8.99226 13.8789 9.33723C13.6706 9.6822 13.3934 9.98056 13.0646 10.2137C13.4666 9.80369 13.7244 9.27417 13.7992 8.70491C13.8401 8.44284 13.8289 8.17527 13.7661 7.91755C13.7034 7.65983 13.5904 7.41703 13.4337 7.20308C13.2769 6.98913 13.0794 6.80823 12.8526 6.67077C12.6257 6.53331 12.374 6.44199 12.1117 6.40204C11.9934 6.38554 11.8739 6.3789 11.7544 6.38219C11.1164 6.39983 10.5053 6.64274 10.0292 7.06788C9.55321 7.49303 9.24306 8.07296 9.15374 8.70491C9.13724 8.81661 9.1306 8.92954 9.13389 9.0424C9.07123 8.76231 9.05779 8.47345 9.09418 8.18875C9.19361 7.48509 9.53947 6.83952 10.0702 6.36693C10.601 5.89435 11.2822 5.6254 11.9926 5.60795C12.5868 5.5951 13.162 5.81728 13.5932 6.2262C14.0244 6.63512 14.2768 7.19772 14.2955 7.79171C14.2993 7.93097 14.2926 8.07033 14.2756 8.20861Z" fill="white"/>
    <path d="M12.8253 5.72835C13.401 5.90702 14.0561 6.50259 13.7782 7.03861C13.5797 7.43565 12.9643 6.78053 12.3885 6.62171C11.8128 6.46289 10.9592 6.46289 11.118 6.04599C11.3761 5.45042 12.2496 5.54968 12.8253 5.72835Z" fill="white"/>
    <path d="M20.5069 10.3536C19.1873 10.5687 17.8438 10.5954 16.5166 10.433L17.4894 8.80513L18.3232 10.0955L19.2761 8.60661L20.3481 10.0558L20.9238 7.87207L22.3135 9.26173C22.4525 9.4007 22.5914 9.97642 20.5069 10.3536Z" fill="#F76F60"/>
    <path d="M31.7886 12.8322C31.3782 12.8307 30.9757 12.7195 30.6228 12.51C30.2699 12.3006 29.9794 12.0006 29.7815 11.6411V15.1748H29.1681C28.9857 15.1786 28.8045 15.1456 28.6351 15.078C28.4657 15.0103 28.3117 14.9094 28.1821 14.7811C28.0524 14.6527 27.9499 14.4997 27.8806 14.331C27.8112 14.1623 27.7765 13.9814 27.7784 13.7991V8.967C27.7784 6.30877 28.9695 4.48633 31.7747 4.48633C33.8929 4.48633 35.3997 6.41995 35.3997 8.42702C35.3957 10.9741 34.1133 12.8322 31.7886 12.8322ZM31.455 6.24127C30.3572 6.24127 29.7438 7.19022 29.7438 8.56598C29.7438 10.1542 30.526 11.0753 31.7151 11.0753C32.6819 11.0753 33.3509 10.2197 33.3509 8.93722C33.3529 7.05125 32.7196 6.24127 31.455 6.24127Z" fill="white"/>
    <path d="M39.6323 9.50558H38.332C38.4809 10.5101 39.3921 11.1414 40.5634 11.1414C41.3992 11.1414 42.366 10.9746 42.9973 10.3791H43.0807V10.9925C43.0807 12.0149 42.3918 12.7971 40.1981 12.7971C39.6755 12.7959 39.1584 12.6905 38.677 12.487C38.1956 12.2836 37.7596 11.9862 37.3945 11.6122C37.0294 11.2383 36.7426 10.7953 36.5507 10.3091C36.3589 9.82298 36.2659 9.30347 36.2773 8.78097C36.2773 6.12274 37.9131 4.45117 40.1803 4.45117C41.834 4.45117 43.3765 5.64231 43.3765 7.53623C43.3884 9.04103 42.2727 9.50558 39.6323 9.50558ZM40.0056 6.14259C39.0388 6.14259 38.3697 6.92279 38.332 7.85188L38.3161 8.11194H39.2075C41.0855 8.11194 41.5124 7.91342 41.5124 7.34961C41.5104 6.5317 40.9347 6.14259 40.0056 6.14259Z" fill="white"/>
    <path d="M47.6052 9.50558H46.3048C46.4537 10.5101 47.363 11.1414 48.5342 11.1414C49.372 11.1414 50.3368 10.9746 50.9701 10.3791H51.0436V10.9925C51.0436 12.0149 50.3567 12.7971 48.163 12.7971C47.6402 12.7962 47.1229 12.691 46.6412 12.4876C46.1596 12.2843 45.7234 11.9869 45.3581 11.613C44.9928 11.239 44.7058 10.7959 44.5138 10.3096C44.3219 9.82331 44.2288 9.30363 44.2402 8.78097C44.2402 6.12274 45.876 4.45117 48.1451 4.45117C49.7988 4.45117 51.3414 5.64231 51.3414 7.53623C51.3414 9.04103 50.2455 9.50558 47.6052 9.50558ZM47.9764 6.14259C47.0116 6.14259 46.3406 6.92279 46.3048 7.85188L46.285 8.11194H47.1783C49.0544 8.11194 49.4832 7.91342 49.4832 7.34961C49.4832 6.5317 48.8876 6.14259 47.9764 6.14259Z" fill="white"/>
    <path d="M57.1043 6.5891C56.7397 6.43301 56.3475 6.35134 55.9509 6.34889C55.0595 6.34889 54.5751 6.8313 54.5751 8.05817V12.65H54.0371C53.1438 12.65 52.5859 12.2033 52.5859 11.3676V7.7048C52.5859 6.11662 53.4237 4.58203 55.5419 4.58203C56.7688 4.58203 57.1956 5.27091 57.1956 5.88434V6.5891H57.1043Z" fill="white"/>
    <path d="M61.9392 12.7766H61.5302C59.6343 12.7766 58.332 11.7185 58.332 10.2494C58.332 8.83594 59.3743 7.74009 62.2926 7.74009H62.9795V7.63091C62.9795 6.49734 62.4415 6.16183 61.2702 6.16183C59.8388 6.16183 59.0388 6.70182 58.741 7.07306H58.6675V6.43977C58.6675 5.5484 59.4616 4.48828 61.568 4.48828C63.3547 4.48828 64.9429 5.32605 64.9429 8.0756V9.91392C64.9667 11.6014 63.7259 12.7766 61.9392 12.7766ZM63.0172 9.17145H62.3104C60.8056 9.17145 60.3768 9.52482 60.3768 10.174C60.3768 10.7874 60.8791 11.1666 61.7526 11.1666C62.6261 11.1666 63.0172 10.7576 63.0172 9.93973V9.17145Z" fill="#7699FF"/>
    <path d="M72.4391 12.6479C71.5458 12.6479 70.9899 12.0901 70.9899 11.3456V8.18709C70.9899 6.84706 70.3943 6.25347 69.372 6.25347C68.5163 6.25347 67.9227 6.90463 67.9227 8.04019V12.6658H67.3272C66.4914 12.6658 65.9375 12.1079 65.9375 11.3655V7.88931C65.9375 6.19789 67.0532 4.46875 69.5427 4.46875C71.4207 4.46875 72.9811 5.73334 72.9811 8.00048V12.6479H72.4391Z" fill="#7699FF"/>
    <path d="M80.7644 12.6473C79.9286 12.6473 79.4263 12.1828 79.4263 11.3093V8.05549C79.4263 6.75517 78.7196 6.23305 77.8381 6.23305C77.2247 6.23305 76.4068 6.69958 76.4068 8.11108V12.6473H75.7378C74.8087 12.6473 74.3818 12.1252 74.3818 11.3093V0.880859H74.9953C75.9422 0.880859 76.4068 1.42084 76.4068 2.16332V5.56403C76.7046 5.09948 77.3994 4.5059 78.1359 4.5059C80.1986 4.5059 81.4076 5.73277 81.4076 7.99991V12.6831H80.7564L80.7644 12.6473Z" fill="#7699FF"/>
    <path d="M85.99 12.7766H85.581C83.6851 12.7766 82.3848 11.7185 82.3848 10.2494C82.3848 8.83594 83.425 7.74009 86.3433 7.74009H87.0322V7.63091C87.0322 6.49734 86.4922 6.16183 85.3209 6.16183C83.8896 6.16183 83.0915 6.70182 82.7937 7.07306H82.7183V6.43977C82.7183 5.5484 83.5124 4.48828 85.6187 4.48828C87.4054 4.48828 88.9936 5.32605 88.9936 8.0756V9.91392C89.0015 11.6014 87.7489 12.7766 85.99 12.7766ZM87.0679 9.17145H86.3592C84.8524 9.17145 84.4256 9.52482 84.4256 10.174C84.4256 10.7874 84.9278 11.1666 85.8014 11.1666C86.6749 11.1666 87.0838 10.7576 87.0838 9.93973V9.17145H87.0679Z" fill="#7699FF"/>
</svg>
